<svg width="300" height="300" viewBox="0 0 300 300" fill="none" xmlns="http://www.w3.org/2000/svg">
<rect width="300" height="300" rx="12" fill="black"/>
<path d="M70.5854 160.088V158.24C69.0174 158.064 67.7774 157.504 66.8654 156.56C65.9534 155.616 65.4974 154.416 65.4974 152.96H67.6094C67.6094 153.808 67.8574 154.568 68.3534 155.24C68.8654 155.896 69.6094 156.32 70.5854 156.512V150.008C70.4734 149.976 70.3534 149.944 70.2254 149.912C70.1134 149.864 70.0014 149.824 69.8894 149.792C68.5934 149.344 67.6334 148.792 67.0094 148.136C66.3854 147.464 66.0734 146.592 66.0734 145.52C66.0574 144.272 66.4494 143.232 67.2494 142.4C68.0654 141.568 69.1774 141.088 70.5854 140.96V139.016H72.2414V140.96C73.5854 141.12 74.6574 141.624 75.4574 142.472C76.2574 143.32 76.6654 144.352 76.6814 145.568H74.5694C74.5694 144.976 74.3774 144.408 73.9934 143.864C73.6094 143.304 73.0254 142.928 72.2414 142.736V148.544C72.3694 148.576 72.4974 148.616 72.6254 148.664C72.7534 148.712 72.8894 148.752 73.0334 148.784C73.8334 149.072 74.5534 149.408 75.1934 149.792C75.8334 150.176 76.3294 150.672 76.6814 151.28C77.0494 151.888 77.2334 152.664 77.2334 153.608C77.2334 154.36 77.0494 155.072 76.6814 155.744C76.3134 156.416 75.7534 156.984 75.0014 157.448C74.2654 157.912 73.3454 158.184 72.2414 158.264V160.088H70.5854ZM68.1614 145.328C68.1614 146.064 68.3774 146.624 68.8094 147.008C69.2414 147.376 69.8334 147.696 70.5854 147.968V142.688C69.8654 142.8 69.2814 143.088 68.8334 143.552C68.3854 144 68.1614 144.592 68.1614 145.328ZM75.1454 153.728C75.1454 152.8 74.8734 152.112 74.3294 151.664C73.7854 151.216 73.0894 150.848 72.2414 150.56V156.56C73.1694 156.448 73.8814 156.128 74.3774 155.6C74.8894 155.072 75.1454 154.448 75.1454 153.728ZM85.9964 161.648C84.9084 161.648 84.0284 161.344 83.3564 160.736C82.6844 160.144 82.3484 159.248 82.3484 158.048C82.3484 157.504 82.3884 157.016 82.4684 156.584C82.5644 156.136 82.6524 155.68 82.7324 155.216C82.8284 154.752 82.8764 154.208 82.8764 153.584C82.8764 153.008 82.7084 152.472 82.3724 151.976C82.0364 151.464 81.3804 151.104 80.4044 150.896V149.264C81.3804 149.056 82.0364 148.704 82.3724 148.208C82.7084 147.712 82.8764 147.168 82.8764 146.576C82.8764 145.968 82.8284 145.432 82.7324 144.968C82.6524 144.504 82.5644 144.056 82.4684 143.624C82.3884 143.176 82.3484 142.68 82.3484 142.136C82.3484 140.92 82.6844 140.016 83.3564 139.424C84.0284 138.832 84.9084 138.536 85.9964 138.536H87.2684V140.264H86.3564C85.6844 140.264 85.1724 140.424 84.8204 140.744C84.4844 141.048 84.3164 141.568 84.3164 142.304C84.3164 142.768 84.3564 143.216 84.4364 143.648C84.5164 144.064 84.5964 144.512 84.6764 144.992C84.7724 145.456 84.8204 146.008 84.8204 146.648C84.8204 147.496 84.6044 148.224 84.1724 148.832C83.7564 149.44 83.0844 149.848 82.1564 150.056V150.104C83.0844 150.328 83.7564 150.744 84.1724 151.352C84.6044 151.96 84.8204 152.688 84.8204 153.536C84.8204 154.16 84.7724 154.712 84.6764 155.192C84.5964 155.656 84.5164 156.104 84.4364 156.536C84.3564 156.952 84.3164 157.4 84.3164 157.88C84.3164 158.6 84.4844 159.12 84.8204 159.44C85.1724 159.76 85.6844 159.92 86.3564 159.92H87.2684V161.648H85.9964ZM90.2877 158V141.2H92.6397L98.6877 152.912L104.688 141.2H107.064V158H105.048V144.8L99.4317 155.6H97.9197L92.3037 144.824V158H90.2877ZM115.912 158.288C114.792 158.288 113.784 158.032 112.888 157.52C111.992 157.008 111.28 156.288 110.752 155.36C110.24 154.416 109.984 153.312 109.984 152.048C109.984 150.784 110.248 149.688 110.776 148.76C111.304 147.816 112.016 147.088 112.912 146.576C113.824 146.064 114.84 145.808 115.96 145.808C117.08 145.808 118.088 146.064 118.984 146.576C119.88 147.088 120.584 147.816 121.096 148.76C121.624 149.688 121.888 150.784 121.888 152.048C121.888 153.312 121.624 154.416 121.096 155.36C120.568 156.288 119.848 157.008 118.936 157.52C118.04 158.032 117.032 158.288 115.912 158.288ZM115.912 156.56C116.6 156.56 117.24 156.392 117.832 156.056C118.424 155.72 118.904 155.216 119.272 154.544C119.64 153.872 119.824 153.04 119.824 152.048C119.824 151.056 119.64 150.224 119.272 149.552C118.92 148.88 118.448 148.376 117.856 148.04C117.264 147.704 116.632 147.536 115.96 147.536C115.272 147.536 114.632 147.704 114.04 148.04C113.448 148.376 112.968 148.88 112.6 149.552C112.232 150.224 112.048 151.056 112.048 152.048C112.048 153.04 112.232 153.872 112.6 154.544C112.968 155.216 113.44 155.72 114.016 156.056C114.608 156.392 115.24 156.56 115.912 156.56ZM127.514 158L123.002 146.096H125.114L128.69 156.056L132.29 146.096H134.354L129.842 158H127.514ZM137.821 143.456C137.421 143.456 137.085 143.328 136.813 143.072C136.557 142.8 136.429 142.464 136.429 142.064C136.429 141.68 136.557 141.36 136.813 141.104C137.085 140.848 137.421 140.72 137.821 140.72C138.205 140.72 138.533 140.848 138.805 141.104C139.077 141.36 139.213 141.68 139.213 142.064C139.213 142.464 139.077 142.8 138.805 143.072C138.533 143.328 138.205 143.456 137.821 143.456ZM136.813 158V146.096H138.829V158H136.813ZM147.692 158.288C146.556 158.288 145.548 158.032 144.668 157.52C143.788 156.992 143.092 156.264 142.58 155.336C142.084 154.408 141.836 153.312 141.836 152.048C141.836 150.8 142.084 149.712 142.58 148.784C143.076 147.84 143.764 147.112 144.644 146.6C145.54 146.072 146.572 145.808 147.74 145.808C148.892 145.808 149.884 146.072 150.716 146.6C151.564 147.112 152.212 147.792 152.66 148.64C153.108 149.488 153.332 150.4 153.332 151.376C153.332 151.552 153.324 151.728 153.308 151.904C153.308 152.08 153.308 152.28 153.308 152.504H143.828C143.876 153.416 144.084 154.176 144.452 154.784C144.836 155.376 145.308 155.824 145.868 156.128C146.444 156.432 147.052 156.584 147.692 156.584C148.524 156.584 149.22 156.392 149.78 156.008C150.34 155.624 150.748 155.104 151.004 154.448H152.996C152.676 155.552 152.06 156.472 151.148 157.208C150.252 157.928 149.1 158.288 147.692 158.288ZM147.692 147.512C146.732 147.512 145.876 147.808 145.124 148.4C144.388 148.976 143.964 149.824 143.852 150.944H151.34C151.292 149.872 150.924 149.032 150.236 148.424C149.548 147.816 148.7 147.512 147.692 147.512ZM162.475 158V141.2H164.491L173.443 154.664V141.2H175.459V158H173.443L164.491 144.536V158H162.475ZM182.862 158.288C181.87 158.288 181.046 158.12 180.39 157.784C179.734 157.448 179.246 157 178.926 156.44C178.606 155.88 178.446 155.272 178.446 154.616C178.446 153.4 178.91 152.464 179.838 151.808C180.766 151.152 182.03 150.824 183.63 150.824H186.846V150.68C186.846 149.64 186.574 148.856 186.03 148.328C185.486 147.784 184.758 147.512 183.846 147.512C183.062 147.512 182.382 147.712 181.806 148.112C181.246 148.496 180.894 149.064 180.75 149.816H178.686C178.766 148.952 179.054 148.224 179.55 147.632C180.062 147.04 180.694 146.592 181.446 146.288C182.198 145.968 182.998 145.808 183.846 145.808C185.51 145.808 186.758 146.256 187.59 147.152C188.438 148.032 188.862 149.208 188.862 150.68V158H187.062L186.942 155.864C186.606 156.536 186.11 157.112 185.454 157.592C184.814 158.056 183.95 158.288 182.862 158.288ZM183.174 156.584C183.942 156.584 184.598 156.384 185.142 155.984C185.702 155.584 186.126 155.064 186.414 154.424C186.702 153.784 186.846 153.112 186.846 152.408V152.384H183.798C182.614 152.384 181.774 152.592 181.278 153.008C180.798 153.408 180.558 153.912 180.558 154.52C180.558 155.144 180.782 155.648 181.23 156.032C181.694 156.4 182.342 156.584 183.174 156.584ZM191.886 158V146.096H193.71L193.854 147.824C194.238 147.184 194.75 146.688 195.39 146.336C196.03 145.984 196.75 145.808 197.55 145.808C198.494 145.808 199.302 146 199.974 146.384C200.662 146.768 201.19 147.352 201.558 148.136C201.974 147.416 202.542 146.848 203.262 146.432C203.998 146.016 204.79 145.808 205.638 145.808C207.062 145.808 208.198 146.24 209.046 147.104C209.894 147.952 210.318 149.264 210.318 151.04V158H208.326V151.256C208.326 150.024 208.078 149.096 207.582 148.472C207.086 147.848 206.374 147.536 205.446 147.536C204.486 147.536 203.686 147.912 203.046 148.664C202.422 149.4 202.11 150.456 202.11 151.832V158H200.094V151.256C200.094 150.024 199.846 149.096 199.35 148.472C198.854 147.848 198.142 147.536 197.214 147.536C196.27 147.536 195.478 147.912 194.838 148.664C194.214 149.4 193.902 150.456 193.902 151.832V158H191.886ZM218.707 158.288C217.571 158.288 216.563 158.032 215.683 157.52C214.803 156.992 214.107 156.264 213.595 155.336C213.099 154.408 212.851 153.312 212.851 152.048C212.851 150.8 213.099 149.712 213.595 148.784C214.091 147.84 214.779 147.112 215.659 146.6C216.555 146.072 217.587 145.808 218.755 145.808C219.907 145.808 220.899 146.072 221.731 146.6C222.579 147.112 223.227 147.792 223.675 148.64C224.123 149.488 224.347 150.4 224.347 151.376C224.347 151.552 224.339 151.728 224.323 151.904C224.323 152.08 224.323 152.28 224.323 152.504H214.843C214.891 153.416 215.099 154.176 215.467 154.784C215.851 155.376 216.323 155.824 216.883 156.128C217.459 156.432 218.067 156.584 218.707 156.584C219.539 156.584 220.235 156.392 220.795 156.008C221.355 155.624 221.763 155.104 222.019 154.448H224.011C223.691 155.552 223.075 156.472 222.163 157.208C221.267 157.928 220.115 158.288 218.707 158.288ZM218.707 147.512C217.747 147.512 216.891 147.808 216.139 148.4C215.403 148.976 214.979 149.824 214.867 150.944H222.355C222.307 149.872 221.939 149.032 221.251 148.424C220.563 147.816 219.715 147.512 218.707 147.512ZM226.611 161.648V159.92H227.523C228.179 159.92 228.683 159.76 229.035 159.44C229.387 159.12 229.563 158.6 229.563 157.88C229.563 157.4 229.523 156.952 229.443 156.536C229.363 156.104 229.275 155.656 229.179 155.192C229.099 154.712 229.059 154.16 229.059 153.536C229.059 152.688 229.267 151.96 229.683 151.352C230.099 150.744 230.779 150.328 231.723 150.104V150.056C230.779 149.848 230.099 149.44 229.683 148.832C229.267 148.224 229.059 147.496 229.059 146.648C229.059 146.008 229.099 145.456 229.179 144.992C229.275 144.512 229.363 144.064 229.443 143.648C229.523 143.216 229.563 142.768 229.563 142.304C229.563 141.568 229.387 141.048 229.035 140.744C228.683 140.424 228.179 140.264 227.523 140.264H226.611V138.536H227.883C228.971 138.536 229.843 138.832 230.499 139.424C231.171 140.016 231.507 140.92 231.507 142.136C231.507 142.68 231.467 143.176 231.387 143.624C231.307 144.056 231.219 144.504 231.123 144.968C231.043 145.432 231.003 145.968 231.003 146.576C231.003 147.168 231.171 147.712 231.507 148.208C231.843 148.704 232.499 149.056 233.475 149.264V150.896C232.499 151.104 231.843 151.464 231.507 151.976C231.171 152.472 231.003 153.008 231.003 153.584C231.003 154.208 231.043 154.752 231.123 155.216C231.219 155.68 231.307 156.136 231.387 156.584C231.467 157.016 231.507 157.504 231.507 158.048C231.507 159.248 231.171 160.144 230.499 160.736C229.843 161.344 228.971 161.648 227.883 161.648H226.611Z" fill="white"/>
</svg>
